IKoutput_20to65secs_10hz.mot
version=1
nRows=27
nColumns=19
inDegrees=yes
endheader
time	/jointset/ground_pelvis/pelvis_tilt/value	/jointset/ground_pelvis/pelvis_list/value	/jointset/ground_pelvis/pelvis_rotation/value	/jointset/ground_pelvis/pelvis_tx/value	/jointset/ground_pelvis/pelvis_ty/value	/jointset/ground_pelvis/pelvis_tz/value	/jointset/hip_r/hip_flexion_r/value	/jointset/hip_r/hip_adduction_r/value	/jointset/hip_r/hip_rotation_r/value	/jointset/walker_knee_r/knee_angle_r/value	/jointset/patellofemoral_r/knee_angle_r_beta/value	/jointset/ankle_r/ankle_angle_r/value	/jointset/hip_l/hip_flexion_l/value	/jointset/hip_l/hip_adduction_l/value	/jointset/hip_l/hip_rotation_l/value	/jointset/walker_knee_l/knee_angle_l/value	/jointset/patellofemoral_l/knee_angle_l_beta/value	/jointset/ankle_l/ankle_angle_l/value
53.75000000	-3.73465992	2.69819972	-1.77091473	25.86147277	0.95891563	-0.52710994	13.59664672	-7.64606618	-3.64338677	53.30803923	0.93040080	-24.18661699	8.70618128	6.32943477	0.37615399	0.14779918	0.00257958	-4.79919428
53.76000000	-3.74412705	2.73760082	-1.76262798	25.86811607	0.95933606	-0.52861602	14.72390841	-8.00330956	-4.10625746	54.63922727	0.95363442	-24.90318102	8.25864044	6.49731968	0.46983354	0.15087519	0.00263327	-4.33394220
53.77000000	-3.76175083	2.76913479	-1.73290981	25.87469735	0.95975381	-0.53004464	15.80857746	-8.36232648	-4.64143387	55.83057125	0.97442729	-24.67831370	7.82204464	6.65392523	0.56501998	0.15404041	0.00268851	-3.87908778
53.78000000	-3.78997480	2.79091424	-1.69425557	25.88120700	0.96017454	-0.53135568	16.85579933	-8.70582804	-5.20727846	56.86888076	0.99254921	-23.56783787	7.39875354	6.79250173	0.64499291	0.15726567	0.00274481	-3.43575279
53.79000000	-3.83081454	2.80050011	-1.65560138	25.88763836	0.96060570	-0.53251824	17.87072477	-9.01231592	-5.75955645	57.73729917	1.00770597	-21.75381196	6.99175160	6.90706243	0.70010236	0.16065220	0.00280391	-3.00805281
53.80000000	-3.88487945	2.79615664	-1.62295158	25.89399244	0.96105259	-0.53351790	18.85758546	-9.26111079	-6.25663411	58.42078857	1.01963511	-19.49062400	6.60318156	6.99421806	0.72543730	0.16438332	0.00286903	-2.60038791
53.81000000	-3.95147311	2.77729593	-1.59853622	25.90027468	0.96151533	-0.53435971	19.81923777	-9.43764536	-6.66795809	58.90843340	1.02814612	-17.04849912	6.23425223	7.05376826	0.72011487	0.16871770	0.00294468	-2.21563241
53.82000000	-4.02928738	2.74440285	-1.58042469	25.90648964	0.96198805	-0.53506465	20.75672445	-9.53640510	-6.97998729	59.19297325	1.03311228	-14.66508565	5.88551926	7.08810915	0.68843474	0.17402737	0.00303735	-1.85361709
53.83000000	-4.11700596	2.69926064	-1.56495377	25.91263936	0.96245981	-0.53566152	21.66944773	-9.56105214	-7.19485884	59.27041075	1.03446382	-12.50335261	5.55697108	7.10145360	0.63902875	0.18080750	0.00315569	-1.51160691
53.84000000	-4.21354742	2.64514401	-1.54955268	25.91872540	0.96291645	-0.53617786	22.55575484	-9.52202838	-7.32433048	59.14039047	1.03219453	-10.62852374	5.24797746	7.09912547	0.58149022	0.18960898	0.00330930	-1.18712109
53.85000000	-4.31800755	2.58633887	-1.53334363	25.92474971	0.96334251	-0.53663247	23.41363407	-9.43287005	-7.38400955	58.80696738	1.02637520	-9.01729543	4.95736195	7.08661064	0.52329701	0.20098734	0.00350789	-0.87977813
53.86000000	-4.42937078	2.52710433	-1.51645884	25.93071454	0.96372339	-0.53703270	24.24096371	-9.30739340	-7.39068212	58.27873058	1.01715573	-7.59410721	4.68331997	7.06837522	0.46950213	0.21555663	0.00376217	-0.59099287
53.87000000	-4.54616920	2.47075665	-1.50012860	25.93662451	0.96404784	-0.53737618	25.03512638	-9.15743978	-7.36097225	57.56665644	1.00472769	-6.28056067	4.42292440	7.04703599	0.42374882	0.23402538	0.00408451	-0.32235808
53.88000000	-4.66650963	2.41955712	-1.48806863	25.94248898	0.96430862	-0.53765545	25.79313616	-8.99112204	-7.30874103	56.68095276	0.98926925	-5.03166769	4.17222191	7.02380014	0.38635475	0.25702147	0.00448587	-0.07350915
53.89000000	-4.78856524	2.37500172	-1.48653775	25.94832039	0.96450073	-0.53786318	26.51250514	-8.81374178	-7.24419504	55.63034532	0.97093269	-3.83558115	3.92740063	6.99970190	0.35154987	0.28479252	0.00497057	0.15938216
53.90000000	-4.91098260	2.33777210	-1.50146717	25.95413045	0.96462058	-0.53799576	27.19129584	-8.63051502	-7.17679541	54.42299266	0.94986041	-2.69292257	3.68577602	6.97610351	0.30969911	0.31711137	0.00553464	0.38481593
53.91000000	-5.03279068	2.30755178	-1.53554523	25.95992902	0.96466722	-0.53805408	27.82656449	-8.44749267	-7.11794656	53.06521562	0.92616273	-1.60871565	3.44572231	6.95420602	0.25250898	0.35350937	0.00616990	0.61463424
53.92000000	-5.15316529	2.28307064	-1.58761253	25.96572591	0.96464331	-0.53804259	28.41284074	-8.27000915	-7.08072656	51.55930452	0.89987962	-0.59933104	3.20600397	6.93445620	0.17611500	0.39371418	0.00687161	0.85924767
53.93000000	-5.27153597	2.26249680	-1.65366902	25.97153203	0.96455343	-0.53796793	28.94243151	-8.10125235	-7.07737143	49.90347928	0.87098002	0.30704006	2.96552756	6.91645147	0.08180958	0.43814007	0.00764699	1.12559502
53.94000000	-5.38788523	2.24402868	-1.72800715	25.97735760	0.96440205	-0.53783753	29.40639668	-7.94221198	-7.11634177	48.09212862	0.83936599	1.08067737	2.72407663	6.89909218	-0.02465142	0.48830367	0.00852251	1.41831612
53.95000000	-5.50269455	2.22622744	-1.80401289	25.98320999	0.96419269	-0.53765702	29.79514665	-7.79120855	-7.20013957	46.11726900	0.80489819	1.69844570	2.48299808	6.88066278	-0.13546813	0.54709548	0.00954862	1.73901465
53.96000000	-5.61639583	2.20796745	-1.87537915	25.98909588	0.96392749	-0.53742770	30.10014496	-7.64283540	-7.32381895	43.97437951	0.76749771	2.14633572	2.24452918	6.85903360	-0.24345082	0.61876190	0.01079943	2.08506682
53.97000000	-5.72901641	2.18812958	-1.93665587	25.99502461	0.96360765	-0.53714742	30.31599904	-7.48936974	-7.47811277	41.66628008	0.72721378	2.41859550	2.01078128	6.83184803	-0.34216373	0.70860521	0.01236749	2.45111610
53.98000000	-5.84039478	2.16533247	-1.98188456	26.00100675	0.96323480	-0.53681320	30.43996565	-7.32458892	-7.65894826	39.19920544	0.68415520	2.51618974	1.78375035	6.79660332	-0.42493831	0.82251278	0.01435556	2.83135443
53.99000000	-5.95012330	2.13819014	-2.00393716	26.00705256	0.96281194	-0.53642189	30.46909454	-7.14581633	-7.87359369	36.57708898	0.63839063	2.44866560	1.56510391	6.75107748	-0.48600414	0.96612980	0.01686214	3.22065057
54	-6.05706798	2.10598315	-1.99663097	26.01317413	0.96234298	-0.53596980	30.39884080	-6.95235242	-8.13422726	33.80137813	0.58994534	2.23639944	1.35523039	6.69397400	-0.52266676	1.14406211	0.01996765	3.61657427
54.01000000	-6.15952033	2.06895983	-1.95716389	26.01938563	0.96183095	-0.53545378	30.22540616	-6.74249824	-8.44294183	30.87624700	0.53889217	1.90813750	1.15333989	6.62498820	-0.53556284	1.35979275	0.02373286	4.02127037
